<?xml version="1.0" encoding="utf-8"?>
<!-- Generator: Adobe Illustrator 19.1.0, SVG Export Plug-In . SVG Version: 6.00 Build 0)  -->
<svg version="1.1" id="Layer_1" xmlns="http://www.w3.org/2000/svg" xmlns:xlink="http://www.w3.org/1999/xlink" x="0px" y="0px"
	 viewBox="-210 191.6 153.4 48.4" style="enable-background:new -210 191.6 153.4 48.4;" xml:space="preserve">
<style type="text/css">
	.st0{fill:#FFFFFF;}
</style>
<g>
	<path class="st0" d="M-153.9,214.5c-0.4,0-0.9-0.1-1-0.5c-0.1-0.4,0.2-0.8,0.5-1c0.4-0.3,1-0.6,1.5-0.5c0.5,0.1,1,0.8,0.7,1.2
		c-0.1,0.2-0.3,0.3-0.5,0.4C-153.1,214.4-153.5,214.5-153.9,214.5z"/>
	<path class="st0" d="M-128.8,219c1.8,0.4,3.7,1,4.1,3.1c0.1,0.7,0.1,1.4-0.2,2.1c-0.6,1.7-2,2.9-3.4,4c-6.1,4.4-13.6,6.7-21.1,6.6
		c-3.4-0.1-7.3-0.9-9-3.9c-0.3-0.5-0.5-1.2-0.2-1.8c0.3-0.5,1-0.4,1.3,0.1c1.7,2.9,5.6,3.7,8.9,3.7c7.4-0.1,14.7-2.8,20.2-7.6
		c0.6-0.5,0.9-1.2,1-1.9c0.1-1.4-1-1.9-2-2.2c-5.5-1.9-11.6-1.2-17.1,0.8c-0.9,0.3-2.1,0.1-2.5-0.8c-0.2-0.3-0.8-0.3-1.2-0.2l-5,1.1
		c-0.2,0.1-0.4-0.1-0.4-0.3l-0.1-0.6c0-0.3-0.6-0.2-0.9-0.2l-2.8,0.6c-0.5,0.1-1-0.2-1.2-0.7c-0.3-0.9,0.9-1.3,1.8-1.4
		c1.7-0.1,3.5-0.2,5.2-0.3c3-0.2,6-0.3,9-0.5c0.7,0,1.5-0.1,2.2-0.1C-137.7,218.3-133.2,218.1-128.8,219z"/>
	<path class="st0" d="M-63.8,223.1c0.2-0.1,0.1-0.4,0-0.5c-1-0.7-2.5-0.9-3.8-0.9c-4-0.1-7.9-0.1-11.8,0.7c-0.9,0.2-2,0.4-2.8,0
		c-0.6-0.3-0.9-0.7-0.7-1.3c0.1-0.2,0-0.4-0.2-0.4c-2.8,0-5.6,2.7-8.2,1.6c-0.7-0.3-1.5-0.1-2.3,0.2s-1.6,0.5-2.3,0.2
		c-0.7-0.3-0.8-1.4,0-1.5c5-0.7,10-1.5,15-2.2c0.7-0.1,1.5-0.1,1.8,0.4c0.7,1.3,2.9,1.2,4.5,0.9c2.7-0.4,5.4-0.5,8.1-0.2
		c1.3,0.1,2.6,0.4,3.6,1s1.6,1.9,1.1,2.9c-0.3,0.6-0.9,1-1.5,1.3c-2.5,1.4-5.5,2-8.5,1.7c-0.8-0.1-1.6-0.2-2.2-0.6
		c-0.5-0.3-0.9-0.9-0.8-1.4c0-0.2,0.2-0.3,0.4-0.2C-71,225.8-66.7,225.2-63.8,223.1z"/>
	<path class="st0" d="M-202.6,224.7c0.2,0.5,0.8,0.8,1.3,1c2.1,0.7,4.4,1,6.6,0.9c0.6,0,1.3-0.1,1.8-0.4c0.4-0.2,0.7-0.6,1-1
		c1.9-2.2,3.7-4.6,5.3-7.1V218c-3.5,0.4-6.9,0.8-10.4,1.3c-0.6,0.1-1.1-0.2-1.3-0.8c-0.2-0.8,0.6-1.2,1.2-1.5
		c4.5-0.9,7.6-1.7,10.8-2.3c1.2-0.2,2.8-1.1,3.5-2.1c1-1.2,1.5-2.6,2.1-4v-0.1c-3.1,0.4-6.2,0.7-9.3,1.1c-0.3,0-0.7,0.1-1-0.1
		c-0.4-0.3-0.3-1,0-1.4c0.4-0.4,0.9-0.5,1.5-0.6c3.2-0.6,6.5-1,9.8-1.1c0.6,0,1.1-0.5,1.4-1c0.4-0.6,0.7-1.2,1.4-1.4
		c0.6-0.1,1.1,0.3,1.1,0.9c0,0.6,0.6,1.2,1.2,1.4c0.7,0.2,1.4,0.2,2.1,0.2c3.6-0.1,7.3,0.5,10.6,1.8c0.4,0.2,0.8,0.5,1,0.9
		c0.5,1.1-0.9,2-2,2.4c-2.4,0.9-4.8,1.8-7.2,2.7v0.1c1.5,0.4,3,0.8,4.5,1.2c1.3,0.3,2.6,0.7,3.4,1.7c0.4,0.5,0.7,1.1,0.7,1.7
		c0,1.3-1.1,2-2.1,2.6c-7.6,3.9-16.2,5.4-24.6,6.3c-1.3,0.2-2.7,0.3-4,0.9c-0.3,0.1-0.6,0.3-1,0.3c-0.3,0-0.6-0.1-0.9-0.2
		c-1.4-1.1-6.8,0.1-9.6-1.7c-0.4-0.2-0.7-0.5-0.9-0.9c-0.6-1.2,0.1-2.6,1.1-3.5c1-0.8,2.3-1.2,3.3-2h0.1
		C-199.7,222.3-203.2,223.1-202.6,224.7 M-189.1,225.5c-0.1,0.2-0.3,0.5,0,0.6c8-0.6,16-2.5,23.4-5.5c0.6-0.3,1.3-0.5,1.5-1.2
		c0.2-0.5-0.1-1.2-0.6-1.4c-5-1.9-10.6-2.5-15.9-1.6c-0.5,0.1-1,0.2-1.5,0.4c-0.6,0.3-1.1,0.9-1.5,1.5
		C-185.5,220.7-187.3,223.1-189.1,225.5 M-179.9,212.9c-0.2,0.3-0.1,0.7,0.3,0.8c1.3,0.4,2.8,0.1,4.1-0.2c3.8-0.9,7.6-2,11.3-3.3
		c0.1,0,0.3-0.1,0.3-0.2c0.1-0.2-0.2-0.4-0.5-0.5c-3.5-0.8-7.2-1.2-10.8-1.1c-0.7,0-1.4,0.1-1.9,0.5c-0.3,0.2-0.5,0.5-0.7,0.8
		L-179.9,212.9z"/>
	<path class="st0" d="M-97.9,221.6c-0.8,1.2-1.9,2.4-3.3,2.7c-0.5-0.1-0.8-0.8-0.7-1.3c0.1-0.5,1.5-2.2,1.9-2.6c0,0,3.2-3.5,1.5-3.4
		c-5.3,0.9-9.9,4.2-14.8,6.5c-0.5,0.2-1,0.5-1.6,0.4c-0.6,0-1.1-0.4-1.2-0.9c-0.1-0.6,0.3-1.1,0.7-1.5c4.9-5.1,10.9-9.1,15.6-14.5
		c0.9-1,1.6-2.2,2.2-3.4c0.5-0.9,0.9-2.2,0.4-3.2s-1.9-1.4-2.9-1.6c-1.3-0.2-2.6-0.2-3.9,0c-5.8,0.8-11.3,2.8-16.2,5.9
		c-1.4,0.8-2.5,2-3.2,3.4c-0.3,0.6-1.2,0.6-1.7,0.2c-0.5-0.5-0.5-1.3-0.2-1.9c0.3-0.6,0.9-1.1,1.4-1.5c6-4.6,13.2-7.4,20.7-8.1
		c1.7-0.2,3.5-0.2,5.1,0.3c1.5,0.5,3,1.5,3.3,3.1c0.2,1-0.1,2.1-0.6,3.1c-3.3,7.3-11.2,11.4-16.5,17.4c3.9-2.3,8-4.1,12.2-5.4
		c1-0.3,2.1-0.6,3-0.3c0.2,0.1,0.8,0.5,0.8,0.8C-95.5,216.6-95.8,218.3-97.9,221.6z"/>
</g>
</svg>
